<!-- <svg viewBox="0 0 48 48" fill="none" xmlns="http://www.w3.org/2000/svg">
    <path d="M11.6777 20.271C7.27476 21.3181 4 25.2766 4 30C4 35.5228 8.47715 40 14 40C14.9474 40 15.864 39.8683 16.7325 39.6221" stroke="currentColor" stroke-width="4" stroke-linecap="round" stroke-linejoin="round"/>
    <path d="M36.0547 20.271C40.4577 21.3181 43.7324 25.2766 43.7324 30C43.7324 35.5228 39.2553 40 33.7324 40C32.785 40 31.8684 39.8683 30.9999 39.6221" stroke="currentColor" stroke-width="4" stroke-linecap="round" stroke-linejoin="round"/>
    <path d="M36 20C36 13.3726 30.6274 8 24 8C17.3726 8 12 13.3726 12 20" stroke="currentColor" stroke-width="4" stroke-linecap="round" stroke-linejoin="round"/>
    <path d="M17.0654 27.8812L23.9999 20.9238L31.1318 28.0002" stroke="currentColor" stroke-width="4" stroke-linecap="round" stroke-linejoin="round"/>
    <path d="M24 38.0001V24.4619" stroke="currentColor" stroke-width="4" stroke-linecap="round" stroke-linejoin="round"/>
</svg> -->

<svg xmlns="http://www.w3.org/2000/svg" viewBox="0 0 20 20" data-ut-element="upload-icon" data-state="ready">
    <path fill="currentColor" fill-rule="evenodd" d="M5.5 17a4.5 4.5 0 0 1-1.44-8.765a4.5 4.5 0 0 1 8.302-3.046a3.5 3.5 0 0 1 4.504 4.272A4 4 0 0 1 15 17H5.5Zm3.75-2.75a.75.75 0 0 0 1.5 0V9.66l1.95 2.1a.75.75 0 1 0 1.1-1.02l-3.25-3.5a.75.75 0 0 0-1.1 0l-3.25 3.5a.75.75 0 1 0 1.1 1.02l1.95-2.1v4.59Z" clip-rule="evenodd"></path>
</svg>
